<mxfile host="app.diagrams.net" modified="2021-12-11T07:22:28.546Z" agent="5.0 (Windows NT 10.0; Win64; x64) AppleWebKit/537.36 (KHTML, like Gecko) Chrome/92.0.4515.107 Safari/537.36" etag="j0lbPcfGXRUeU2wN3l7S" version="15.9.4" type="github">
  <diagram id="g8te5oPi9ZXhJIPehppG" name="Page-1">
    <mxGraphModel dx="1422" dy="762" grid="1" gridSize="10" guides="1" tooltips="1" connect="1" arrows="1" fold="1" page="1" pageScale="1" pageWidth="827" pageHeight="1169" math="0" shadow="0">
      <root>
        <mxCell id="0" />
        <mxCell id="1" parent="0" />
        <mxCell id="GQ-dvTlJsdlPZqajyjdu-95" value="" style="rounded=1;whiteSpace=wrap;html=1;fontSize=15;fillColor=#e1d5e7;strokeColor=#9673a6;sketch=1;" parent="1" vertex="1">
          <mxGeometry x="100" y="1480" width="750" height="120" as="geometry" />
        </mxCell>
        <mxCell id="GQ-dvTlJsdlPZqajyjdu-33" value="" style="rounded=1;whiteSpace=wrap;html=1;fillColor=#fff2cc;strokeColor=#d6b656;sketch=1;" parent="1" vertex="1">
          <mxGeometry x="100" y="1240" width="750" height="200" as="geometry" />
        </mxCell>
        <mxCell id="GQ-dvTlJsdlPZqajyjdu-26" value="" style="rounded=1;whiteSpace=wrap;html=1;fillColor=#ffe6cc;strokeColor=#d79b00;sketch=1;" parent="1" vertex="1">
          <mxGeometry x="100" y="920" width="750" height="200" as="geometry" />
        </mxCell>
        <mxCell id="GQ-dvTlJsdlPZqajyjdu-16" value="" style="rounded=1;whiteSpace=wrap;html=1;fillColor=#d5e8d4;strokeColor=#82b366;sketch=1;" parent="1" vertex="1">
          <mxGeometry x="100" y="760" width="750" height="120" as="geometry" />
        </mxCell>
        <mxCell id="GQ-dvTlJsdlPZqajyjdu-11" value="" style="rounded=1;whiteSpace=wrap;html=1;fillColor=#dae8fc;strokeColor=#6c8ebf;sketch=1;" parent="1" vertex="1">
          <mxGeometry x="100" y="544" width="360" height="176" as="geometry" />
        </mxCell>
        <mxCell id="GQ-dvTlJsdlPZqajyjdu-4" style="edgeStyle=orthogonalEdgeStyle;rounded=1;orthogonalLoop=1;jettySize=auto;html=1;exitX=0.5;exitY=1;exitDx=0;exitDy=0;sketch=1;curved=1;" parent="1" source="GQ-dvTlJsdlPZqajyjdu-2" target="GQ-dvTlJsdlPZqajyjdu-3" edge="1">
          <mxGeometry relative="1" as="geometry" />
        </mxCell>
        <mxCell id="GQ-dvTlJsdlPZqajyjdu-2" value="报文填充队列" style="rounded=1;whiteSpace=wrap;html=1;sketch=1;" parent="1" vertex="1">
          <mxGeometry x="120" y="560" width="120" height="40" as="geometry" />
        </mxCell>
        <mxCell id="GQ-dvTlJsdlPZqajyjdu-21" style="edgeStyle=none;rounded=1;orthogonalLoop=1;jettySize=auto;html=1;exitX=0.5;exitY=1;exitDx=0;exitDy=0;sketch=1;curved=1;" parent="1" source="GQ-dvTlJsdlPZqajyjdu-3" target="GQ-dvTlJsdlPZqajyjdu-13" edge="1">
          <mxGeometry relative="1" as="geometry" />
        </mxCell>
        <mxCell id="GQ-dvTlJsdlPZqajyjdu-3" value="通知 host" style="rounded=1;whiteSpace=wrap;html=1;sketch=1;" parent="1" vertex="1">
          <mxGeometry x="120" y="640" width="120" height="40" as="geometry" />
        </mxCell>
        <mxCell id="GQ-dvTlJsdlPZqajyjdu-5" value="xmit_skb" style="text;html=1;strokeColor=none;fillColor=none;align=center;verticalAlign=middle;whiteSpace=wrap;rounded=1;sketch=1;" parent="1" vertex="1">
          <mxGeometry x="180" y="604" width="60" height="30" as="geometry" />
        </mxCell>
        <mxCell id="GQ-dvTlJsdlPZqajyjdu-7" value="" style="rounded=1;whiteSpace=wrap;html=1;fillColor=#ffcc99;strokeColor=#36393d;sketch=1;" parent="1" vertex="1">
          <mxGeometry x="320" y="600" width="120" height="20" as="geometry" />
        </mxCell>
        <mxCell id="GQ-dvTlJsdlPZqajyjdu-8" value="" style="rounded=1;whiteSpace=wrap;html=1;fillColor=#ffcc99;strokeColor=#36393d;sketch=1;" parent="1" vertex="1">
          <mxGeometry x="320" y="620" width="120" height="20" as="geometry" />
        </mxCell>
        <mxCell id="GQ-dvTlJsdlPZqajyjdu-9" value="" style="rounded=1;whiteSpace=wrap;html=1;sketch=1;" parent="1" vertex="1">
          <mxGeometry x="320" y="640" width="120" height="20" as="geometry" />
        </mxCell>
        <mxCell id="GQ-dvTlJsdlPZqajyjdu-85" style="edgeStyle=orthogonalEdgeStyle;rounded=1;orthogonalLoop=1;jettySize=auto;html=1;exitX=0.5;exitY=1;exitDx=0;exitDy=0;entryX=1;entryY=0.5;entryDx=0;entryDy=0;fontSize=12;sketch=1;curved=1;" parent="1" source="GQ-dvTlJsdlPZqajyjdu-10" target="GQ-dvTlJsdlPZqajyjdu-14" edge="1">
          <mxGeometry relative="1" as="geometry" />
        </mxCell>
        <mxCell id="GQ-dvTlJsdlPZqajyjdu-10" value="" style="rounded=1;whiteSpace=wrap;html=1;sketch=1;" parent="1" vertex="1">
          <mxGeometry x="320" y="660" width="120" height="20" as="geometry" />
        </mxCell>
        <mxCell id="GQ-dvTlJsdlPZqajyjdu-24" style="edgeStyle=none;rounded=1;orthogonalLoop=1;jettySize=auto;html=1;exitX=0.5;exitY=1;exitDx=0;exitDy=0;sketch=1;curved=1;" parent="1" source="GQ-dvTlJsdlPZqajyjdu-13" target="GQ-dvTlJsdlPZqajyjdu-14" edge="1">
          <mxGeometry relative="1" as="geometry" />
        </mxCell>
        <mxCell id="GQ-dvTlJsdlPZqajyjdu-13" value="通知 vhost" style="rounded=1;whiteSpace=wrap;html=1;sketch=1;" parent="1" vertex="1">
          <mxGeometry x="120" y="800" width="120" height="40" as="geometry" />
        </mxCell>
        <mxCell id="GQ-dvTlJsdlPZqajyjdu-25" value="" style="edgeStyle=none;rounded=1;orthogonalLoop=1;jettySize=auto;html=1;sketch=1;curved=1;" parent="1" source="GQ-dvTlJsdlPZqajyjdu-14" target="GQ-dvTlJsdlPZqajyjdu-15" edge="1">
          <mxGeometry relative="1" as="geometry" />
        </mxCell>
        <mxCell id="GQ-dvTlJsdlPZqajyjdu-14" value="vhost线程取报文" style="rounded=1;whiteSpace=wrap;html=1;sketch=1;" parent="1" vertex="1">
          <mxGeometry x="120" y="960" width="120" height="40" as="geometry" />
        </mxCell>
        <mxCell id="GQ-dvTlJsdlPZqajyjdu-32" style="edgeStyle=none;rounded=1;orthogonalLoop=1;jettySize=auto;html=1;exitX=0.5;exitY=1;exitDx=0;exitDy=0;entryX=0.5;entryY=0;entryDx=0;entryDy=0;sketch=1;curved=1;" parent="1" source="GQ-dvTlJsdlPZqajyjdu-15" target="GQ-dvTlJsdlPZqajyjdu-30" edge="1">
          <mxGeometry relative="1" as="geometry" />
        </mxCell>
        <mxCell id="GQ-dvTlJsdlPZqajyjdu-15" value="发送到 tap" style="rounded=1;whiteSpace=wrap;html=1;sketch=1;" parent="1" vertex="1">
          <mxGeometry x="120" y="1040" width="120" height="40" as="geometry" />
        </mxCell>
        <mxCell id="GQ-dvTlJsdlPZqajyjdu-18" value="vp_notify" style="text;html=1;strokeColor=none;fillColor=none;align=center;verticalAlign=middle;whiteSpace=wrap;rounded=1;sketch=1;" parent="1" vertex="1">
          <mxGeometry x="180" y="686" width="60" height="30" as="geometry" />
        </mxCell>
        <mxCell id="GQ-dvTlJsdlPZqajyjdu-22" value="vmx_handle_exit" style="text;html=1;strokeColor=none;fillColor=none;align=center;verticalAlign=middle;whiteSpace=wrap;rounded=1;sketch=1;" parent="1" vertex="1">
          <mxGeometry x="199" y="765" width="60" height="30" as="geometry" />
        </mxCell>
        <mxCell id="GQ-dvTlJsdlPZqajyjdu-27" value="ioventfd_write" style="text;html=1;strokeColor=none;fillColor=none;align=center;verticalAlign=middle;whiteSpace=wrap;rounded=1;sketch=1;" parent="1" vertex="1">
          <mxGeometry x="192" y="846" width="60" height="30" as="geometry" />
        </mxCell>
        <mxCell id="GQ-dvTlJsdlPZqajyjdu-28" value="wake_up_process" style="text;html=1;strokeColor=none;fillColor=none;align=center;verticalAlign=middle;whiteSpace=wrap;rounded=1;sketch=1;" parent="1" vertex="1">
          <mxGeometry x="201" y="920" width="60" height="30" as="geometry" />
        </mxCell>
        <mxCell id="GQ-dvTlJsdlPZqajyjdu-29" value="vhost_worker" style="text;html=1;strokeColor=none;fillColor=none;align=center;verticalAlign=middle;whiteSpace=wrap;rounded=1;sketch=1;" parent="1" vertex="1">
          <mxGeometry x="192" y="1005" width="60" height="30" as="geometry" />
        </mxCell>
        <mxCell id="GQ-dvTlJsdlPZqajyjdu-34" style="edgeStyle=none;rounded=1;orthogonalLoop=1;jettySize=auto;html=1;exitX=0.5;exitY=1;exitDx=0;exitDy=0;sketch=1;curved=1;" parent="1" source="GQ-dvTlJsdlPZqajyjdu-30" target="GQ-dvTlJsdlPZqajyjdu-31" edge="1">
          <mxGeometry relative="1" as="geometry" />
        </mxCell>
        <mxCell id="GQ-dvTlJsdlPZqajyjdu-30" value="tap" style="rounded=1;whiteSpace=wrap;html=1;fillColor=#f8cecc;strokeColor=#b85450;sketch=1;" parent="1" vertex="1">
          <mxGeometry x="140" y="1160" width="80" height="40" as="geometry" />
        </mxCell>
        <mxCell id="GQ-dvTlJsdlPZqajyjdu-38" style="edgeStyle=none;rounded=1;orthogonalLoop=1;jettySize=auto;html=1;exitX=0.5;exitY=1;exitDx=0;exitDy=0;entryX=0.5;entryY=0;entryDx=0;entryDy=0;sketch=1;curved=1;" parent="1" source="GQ-dvTlJsdlPZqajyjdu-31" target="GQ-dvTlJsdlPZqajyjdu-37" edge="1">
          <mxGeometry relative="1" as="geometry" />
        </mxCell>
        <mxCell id="GQ-dvTlJsdlPZqajyjdu-31" value="从 tap 接收" style="rounded=1;whiteSpace=wrap;html=1;sketch=1;" parent="1" vertex="1">
          <mxGeometry x="120" y="1280" width="120" height="40" as="geometry" />
        </mxCell>
        <mxCell id="GQ-dvTlJsdlPZqajyjdu-35" value="tun_sendmsg" style="text;html=1;strokeColor=none;fillColor=none;align=center;verticalAlign=middle;whiteSpace=wrap;rounded=1;sketch=1;" parent="1" vertex="1">
          <mxGeometry x="189" y="1086" width="60" height="30" as="geometry" />
        </mxCell>
        <mxCell id="GQ-dvTlJsdlPZqajyjdu-36" value="ovs_vport_receive" style="text;html=1;strokeColor=none;fillColor=none;align=center;verticalAlign=middle;whiteSpace=wrap;rounded=1;sketch=1;" parent="1" vertex="1">
          <mxGeometry x="202" y="1241" width="60" height="30" as="geometry" />
        </mxCell>
        <mxCell id="GQ-dvTlJsdlPZqajyjdu-43" style="edgeStyle=none;rounded=1;orthogonalLoop=1;jettySize=auto;html=1;exitX=1;exitY=0.5;exitDx=0;exitDy=0;entryX=0;entryY=0.5;entryDx=0;entryDy=0;fontSize=12;sketch=1;curved=1;" parent="1" source="GQ-dvTlJsdlPZqajyjdu-37" target="GQ-dvTlJsdlPZqajyjdu-42" edge="1">
          <mxGeometry relative="1" as="geometry" />
        </mxCell>
        <mxCell id="GQ-dvTlJsdlPZqajyjdu-37" value="报文解析出 key" style="rounded=1;whiteSpace=wrap;html=1;sketch=1;" parent="1" vertex="1">
          <mxGeometry x="120" y="1360" width="120" height="40" as="geometry" />
        </mxCell>
        <mxCell id="GQ-dvTlJsdlPZqajyjdu-39" value="ovs_flow_key_extract" style="text;html=1;strokeColor=none;fillColor=none;align=center;verticalAlign=middle;whiteSpace=wrap;rounded=1;sketch=1;" parent="1" vertex="1">
          <mxGeometry x="209" y="1320" width="60" height="30" as="geometry" />
        </mxCell>
        <mxCell id="GQ-dvTlJsdlPZqajyjdu-40" value="&lt;font style=&quot;font-size: 15px&quot; color=&quot;#ff0000&quot;&gt;VM1&lt;/font&gt;" style="text;html=1;strokeColor=none;fillColor=none;align=center;verticalAlign=middle;whiteSpace=wrap;rounded=1;sketch=1;" parent="1" vertex="1">
          <mxGeometry x="400" y="544" width="60" height="30" as="geometry" />
        </mxCell>
        <mxCell id="GQ-dvTlJsdlPZqajyjdu-41" value="&lt;font style=&quot;font-size: 12px&quot;&gt;virtio&lt;/font&gt;" style="text;html=1;strokeColor=none;fillColor=none;align=center;verticalAlign=middle;whiteSpace=wrap;rounded=1;fontSize=15;sketch=1;" parent="1" vertex="1">
          <mxGeometry x="400" y="689" width="60" height="30" as="geometry" />
        </mxCell>
        <mxCell id="GQ-dvTlJsdlPZqajyjdu-46" style="edgeStyle=none;rounded=1;orthogonalLoop=1;jettySize=auto;html=1;exitX=1;exitY=0.5;exitDx=0;exitDy=0;entryX=0;entryY=0.5;entryDx=0;entryDy=0;fontSize=12;sketch=1;curved=1;" parent="1" source="GQ-dvTlJsdlPZqajyjdu-42" target="GQ-dvTlJsdlPZqajyjdu-45" edge="1">
          <mxGeometry relative="1" as="geometry" />
        </mxCell>
        <mxCell id="GQ-dvTlJsdlPZqajyjdu-42" value="根据key查找流表" style="rounded=1;whiteSpace=wrap;html=1;sketch=1;" parent="1" vertex="1">
          <mxGeometry x="414" y="1360" width="120" height="40" as="geometry" />
        </mxCell>
        <mxCell id="GQ-dvTlJsdlPZqajyjdu-44" value="ovs_flow_tbl_lookup_stats" style="text;html=1;strokeColor=none;fillColor=none;align=center;verticalAlign=middle;whiteSpace=wrap;rounded=1;fontSize=12;sketch=1;" parent="1" vertex="1">
          <mxGeometry x="300" y="1380" width="60" height="30" as="geometry" />
        </mxCell>
        <mxCell id="GQ-dvTlJsdlPZqajyjdu-49" style="edgeStyle=none;rounded=1;orthogonalLoop=1;jettySize=auto;html=1;exitX=0.5;exitY=0;exitDx=0;exitDy=0;entryX=0.5;entryY=1;entryDx=0;entryDy=0;fontSize=12;sketch=1;curved=1;" parent="1" source="GQ-dvTlJsdlPZqajyjdu-45" target="GQ-dvTlJsdlPZqajyjdu-48" edge="1">
          <mxGeometry relative="1" as="geometry" />
        </mxCell>
        <mxCell id="GQ-dvTlJsdlPZqajyjdu-92" style="rounded=1;orthogonalLoop=1;jettySize=auto;html=1;exitX=0.5;exitY=1;exitDx=0;exitDy=0;entryX=0.5;entryY=0;entryDx=0;entryDy=0;fontSize=15;fontColor=#FF0000;sketch=1;curved=1;" parent="1" source="GQ-dvTlJsdlPZqajyjdu-45" target="GQ-dvTlJsdlPZqajyjdu-91" edge="1">
          <mxGeometry relative="1" as="geometry" />
        </mxCell>
        <mxCell id="GQ-dvTlJsdlPZqajyjdu-45" value="执行流表的action" style="rounded=1;whiteSpace=wrap;html=1;sketch=1;" parent="1" vertex="1">
          <mxGeometry x="707" y="1360" width="120" height="40" as="geometry" />
        </mxCell>
        <mxCell id="GQ-dvTlJsdlPZqajyjdu-47" value="ovs_execute_actions" style="text;html=1;strokeColor=none;fillColor=none;align=center;verticalAlign=middle;whiteSpace=wrap;rounded=1;fontSize=12;sketch=1;" parent="1" vertex="1">
          <mxGeometry x="580" y="1380" width="60" height="30" as="geometry" />
        </mxCell>
        <mxCell id="GQ-dvTlJsdlPZqajyjdu-53" style="edgeStyle=none;rounded=1;orthogonalLoop=1;jettySize=auto;html=1;exitX=0.5;exitY=0;exitDx=0;exitDy=0;fontSize=12;sketch=1;curved=1;" parent="1" source="GQ-dvTlJsdlPZqajyjdu-48" target="GQ-dvTlJsdlPZqajyjdu-52" edge="1">
          <mxGeometry relative="1" as="geometry" />
        </mxCell>
        <mxCell id="GQ-dvTlJsdlPZqajyjdu-48" value="从 tap 接收" style="rounded=1;whiteSpace=wrap;html=1;sketch=1;" parent="1" vertex="1">
          <mxGeometry x="707" y="1280" width="120" height="40" as="geometry" />
        </mxCell>
        <mxCell id="GQ-dvTlJsdlPZqajyjdu-50" value="ovs_vport_send" style="text;html=1;strokeColor=none;fillColor=none;align=center;verticalAlign=middle;whiteSpace=wrap;rounded=1;fontSize=12;sketch=1;" parent="1" vertex="1">
          <mxGeometry x="690" y="1325" width="60" height="30" as="geometry" />
        </mxCell>
        <mxCell id="GQ-dvTlJsdlPZqajyjdu-56" style="edgeStyle=none;rounded=1;orthogonalLoop=1;jettySize=auto;html=1;exitX=0.5;exitY=0;exitDx=0;exitDy=0;fontSize=12;sketch=1;curved=1;" parent="1" source="GQ-dvTlJsdlPZqajyjdu-52" target="GQ-dvTlJsdlPZqajyjdu-55" edge="1">
          <mxGeometry relative="1" as="geometry" />
        </mxCell>
        <mxCell id="GQ-dvTlJsdlPZqajyjdu-52" value="tap" style="rounded=1;whiteSpace=wrap;html=1;fillColor=#f8cecc;strokeColor=#b85450;sketch=1;" parent="1" vertex="1">
          <mxGeometry x="727" y="1160" width="80" height="40" as="geometry" />
        </mxCell>
        <mxCell id="GQ-dvTlJsdlPZqajyjdu-54" value="rpl_dev_queue_xmit" style="text;html=1;strokeColor=none;fillColor=none;align=center;verticalAlign=middle;whiteSpace=wrap;rounded=1;fontSize=12;sketch=1;" parent="1" vertex="1">
          <mxGeometry x="679" y="1243" width="60" height="30" as="geometry" />
        </mxCell>
        <mxCell id="GQ-dvTlJsdlPZqajyjdu-58" style="edgeStyle=none;rounded=1;orthogonalLoop=1;jettySize=auto;html=1;exitX=0.5;exitY=0;exitDx=0;exitDy=0;entryX=0.5;entryY=1;entryDx=0;entryDy=0;fontSize=12;sketch=1;curved=1;" parent="1" source="GQ-dvTlJsdlPZqajyjdu-55" target="GQ-dvTlJsdlPZqajyjdu-57" edge="1">
          <mxGeometry relative="1" as="geometry" />
        </mxCell>
        <mxCell id="GQ-dvTlJsdlPZqajyjdu-55" value="触发 vhost" style="rounded=1;whiteSpace=wrap;html=1;sketch=1;" parent="1" vertex="1">
          <mxGeometry x="707" y="1040" width="120" height="40" as="geometry" />
        </mxCell>
        <mxCell id="GQ-dvTlJsdlPZqajyjdu-62" style="edgeStyle=none;rounded=1;orthogonalLoop=1;jettySize=auto;html=1;exitX=0.5;exitY=0;exitDx=0;exitDy=0;fontSize=12;sketch=1;curved=1;" parent="1" source="GQ-dvTlJsdlPZqajyjdu-57" target="GQ-dvTlJsdlPZqajyjdu-61" edge="1">
          <mxGeometry relative="1" as="geometry" />
        </mxCell>
        <mxCell id="GQ-dvTlJsdlPZqajyjdu-57" value="vhost 线程发报文" style="rounded=1;whiteSpace=wrap;html=1;sketch=1;" parent="1" vertex="1">
          <mxGeometry x="707" y="960" width="120" height="40" as="geometry" />
        </mxCell>
        <mxCell id="GQ-dvTlJsdlPZqajyjdu-59" value="tun_net_xmit" style="text;html=1;strokeColor=none;fillColor=none;align=center;verticalAlign=middle;whiteSpace=wrap;rounded=1;fontSize=12;sketch=1;" parent="1" vertex="1">
          <mxGeometry x="700" y="1086" width="60" height="30" as="geometry" />
        </mxCell>
        <mxCell id="GQ-dvTlJsdlPZqajyjdu-60" value="wake_up_process" style="text;html=1;strokeColor=none;fillColor=none;align=center;verticalAlign=middle;whiteSpace=wrap;rounded=1;fontSize=12;sketch=1;" parent="1" vertex="1">
          <mxGeometry x="686" y="1005" width="60" height="30" as="geometry" />
        </mxCell>
        <mxCell id="GQ-dvTlJsdlPZqajyjdu-61" value="通知 virtio" style="rounded=1;whiteSpace=wrap;html=1;sketch=1;" parent="1" vertex="1">
          <mxGeometry x="707" y="800" width="120" height="40" as="geometry" />
        </mxCell>
        <mxCell id="GQ-dvTlJsdlPZqajyjdu-63" value="vhost_worker" style="text;html=1;strokeColor=none;fillColor=none;align=center;verticalAlign=middle;whiteSpace=wrap;rounded=1;fontSize=12;sketch=1;" parent="1" vertex="1">
          <mxGeometry x="690" y="925" width="60" height="30" as="geometry" />
        </mxCell>
        <mxCell id="GQ-dvTlJsdlPZqajyjdu-64" value="eventfd_signal" style="text;html=1;strokeColor=none;fillColor=none;align=center;verticalAlign=middle;whiteSpace=wrap;rounded=1;fontSize=12;sketch=1;" parent="1" vertex="1">
          <mxGeometry x="694" y="845" width="60" height="30" as="geometry" />
        </mxCell>
        <mxCell id="GQ-dvTlJsdlPZqajyjdu-66" value="" style="rounded=1;whiteSpace=wrap;html=1;fillColor=#dae8fc;strokeColor=#6c8ebf;sketch=1;" parent="1" vertex="1">
          <mxGeometry x="490" y="544" width="360" height="176" as="geometry" />
        </mxCell>
        <mxCell id="GQ-dvTlJsdlPZqajyjdu-69" value="处理报文" style="rounded=1;whiteSpace=wrap;html=1;sketch=1;" parent="1" vertex="1">
          <mxGeometry x="707" y="564" width="120" height="40" as="geometry" />
        </mxCell>
        <mxCell id="GQ-dvTlJsdlPZqajyjdu-81" style="edgeStyle=none;rounded=1;orthogonalLoop=1;jettySize=auto;html=1;exitX=0.5;exitY=0;exitDx=0;exitDy=0;fontSize=12;sketch=1;curved=1;" parent="1" source="GQ-dvTlJsdlPZqajyjdu-70" target="GQ-dvTlJsdlPZqajyjdu-69" edge="1">
          <mxGeometry relative="1" as="geometry" />
        </mxCell>
        <mxCell id="GQ-dvTlJsdlPZqajyjdu-70" value="触发中断" style="rounded=1;whiteSpace=wrap;html=1;sketch=1;" parent="1" vertex="1">
          <mxGeometry x="707" y="644" width="120" height="40" as="geometry" />
        </mxCell>
        <mxCell id="GQ-dvTlJsdlPZqajyjdu-71" value="netif_receive_skb" style="text;html=1;strokeColor=none;fillColor=none;align=center;verticalAlign=middle;whiteSpace=wrap;rounded=1;sketch=1;" parent="1" vertex="1">
          <mxGeometry x="690" y="610" width="60" height="30" as="geometry" />
        </mxCell>
        <mxCell id="GQ-dvTlJsdlPZqajyjdu-72" value="" style="rounded=1;whiteSpace=wrap;html=1;sketch=1;" parent="1" vertex="1">
          <mxGeometry x="510" y="600" width="120" height="20" as="geometry" />
        </mxCell>
        <mxCell id="GQ-dvTlJsdlPZqajyjdu-73" value="" style="rounded=1;whiteSpace=wrap;html=1;sketch=1;" parent="1" vertex="1">
          <mxGeometry x="510" y="620" width="120" height="20" as="geometry" />
        </mxCell>
        <mxCell id="GQ-dvTlJsdlPZqajyjdu-84" style="edgeStyle=orthogonalEdgeStyle;rounded=1;orthogonalLoop=1;jettySize=auto;html=1;exitX=1;exitY=0.5;exitDx=0;exitDy=0;entryX=0;entryY=0.5;entryDx=0;entryDy=0;fontSize=12;sketch=1;curved=1;" parent="1" source="GQ-dvTlJsdlPZqajyjdu-74" target="GQ-dvTlJsdlPZqajyjdu-69" edge="1">
          <mxGeometry relative="1" as="geometry">
            <Array as="points">
              <mxPoint x="630" y="584" />
            </Array>
          </mxGeometry>
        </mxCell>
        <mxCell id="GQ-dvTlJsdlPZqajyjdu-74" value="" style="rounded=1;whiteSpace=wrap;html=1;fillColor=#ffcc99;strokeColor=#36393d;sketch=1;" parent="1" vertex="1">
          <mxGeometry x="510" y="640" width="120" height="20" as="geometry" />
        </mxCell>
        <mxCell id="GQ-dvTlJsdlPZqajyjdu-75" value="" style="rounded=1;whiteSpace=wrap;html=1;fillColor=#ffcc99;strokeColor=#36393d;sketch=1;" parent="1" vertex="1">
          <mxGeometry x="510" y="660" width="120" height="20" as="geometry" />
        </mxCell>
        <mxCell id="GQ-dvTlJsdlPZqajyjdu-76" value="vp_interrunpt" style="text;html=1;strokeColor=none;fillColor=none;align=center;verticalAlign=middle;whiteSpace=wrap;rounded=1;sketch=1;" parent="1" vertex="1">
          <mxGeometry x="700" y="689" width="60" height="30" as="geometry" />
        </mxCell>
        <mxCell id="GQ-dvTlJsdlPZqajyjdu-77" value="&lt;font style=&quot;font-size: 15px&quot; color=&quot;#ff0000&quot;&gt;VM2&lt;/font&gt;" style="text;html=1;strokeColor=none;fillColor=none;align=center;verticalAlign=middle;whiteSpace=wrap;rounded=1;sketch=1;" parent="1" vertex="1">
          <mxGeometry x="490" y="544" width="60" height="30" as="geometry" />
        </mxCell>
        <mxCell id="GQ-dvTlJsdlPZqajyjdu-78" value="&lt;font style=&quot;font-size: 12px&quot;&gt;virtio&lt;/font&gt;" style="text;html=1;strokeColor=none;fillColor=none;align=center;verticalAlign=middle;whiteSpace=wrap;rounded=1;fontSize=15;sketch=1;" parent="1" vertex="1">
          <mxGeometry x="500" y="690" width="50" height="30" as="geometry" />
        </mxCell>
        <mxCell id="GQ-dvTlJsdlPZqajyjdu-79" style="rounded=1;orthogonalLoop=1;jettySize=auto;html=1;exitX=0.5;exitY=0;exitDx=0;exitDy=0;fontSize=12;sketch=1;curved=1;" parent="1" source="GQ-dvTlJsdlPZqajyjdu-61" target="GQ-dvTlJsdlPZqajyjdu-70" edge="1">
          <mxGeometry relative="1" as="geometry" />
        </mxCell>
        <mxCell id="GQ-dvTlJsdlPZqajyjdu-80" value="vcpu_enter_guest" style="text;html=1;strokeColor=none;fillColor=none;align=center;verticalAlign=middle;whiteSpace=wrap;rounded=1;fontSize=12;sketch=1;" parent="1" vertex="1">
          <mxGeometry x="686" y="765" width="60" height="30" as="geometry" />
        </mxCell>
        <mxCell id="GQ-dvTlJsdlPZqajyjdu-82" style="edgeStyle=orthogonalEdgeStyle;rounded=1;orthogonalLoop=1;jettySize=auto;html=1;exitX=0;exitY=0.5;exitDx=0;exitDy=0;entryX=0.5;entryY=1;entryDx=0;entryDy=0;fontSize=12;sketch=1;curved=1;" parent="1" source="GQ-dvTlJsdlPZqajyjdu-57" target="GQ-dvTlJsdlPZqajyjdu-75" edge="1">
          <mxGeometry relative="1" as="geometry" />
        </mxCell>
        <mxCell id="GQ-dvTlJsdlPZqajyjdu-65" style="edgeStyle=orthogonalEdgeStyle;rounded=1;orthogonalLoop=1;jettySize=auto;html=1;exitX=1;exitY=0.5;exitDx=0;exitDy=0;entryX=0;entryY=0.5;entryDx=0;entryDy=0;fontSize=12;sketch=1;curved=1;" parent="1" source="GQ-dvTlJsdlPZqajyjdu-2" target="GQ-dvTlJsdlPZqajyjdu-8" edge="1">
          <mxGeometry relative="1" as="geometry">
            <Array as="points">
              <mxPoint x="320" y="580" />
            </Array>
          </mxGeometry>
        </mxCell>
        <mxCell id="GQ-dvTlJsdlPZqajyjdu-86" value="vring" style="text;html=1;strokeColor=none;fillColor=none;align=center;verticalAlign=middle;whiteSpace=wrap;rounded=1;fontSize=12;sketch=1;" parent="1" vertex="1">
          <mxGeometry x="354" y="570" width="60" height="30" as="geometry" />
        </mxCell>
        <mxCell id="GQ-dvTlJsdlPZqajyjdu-87" value="vring" style="text;html=1;strokeColor=none;fillColor=none;align=center;verticalAlign=middle;whiteSpace=wrap;rounded=1;fontSize=12;sketch=1;" parent="1" vertex="1">
          <mxGeometry x="540" y="569" width="60" height="30" as="geometry" />
        </mxCell>
        <mxCell id="GQ-dvTlJsdlPZqajyjdu-88" value="&lt;font style=&quot;font-size: 15px&quot;&gt;&lt;font color=&quot;#ff0000&quot;&gt;KVM&lt;/font&gt;&lt;br&gt;&lt;/font&gt;&lt;br&gt;kvm和vhost通信用eventfd，kvm和virtio通信用irqfd" style="text;html=1;strokeColor=none;fillColor=none;align=center;verticalAlign=middle;whiteSpace=wrap;rounded=1;fontSize=12;sketch=1;" parent="1" vertex="1">
          <mxGeometry x="396" y="800" width="156" height="30" as="geometry" />
        </mxCell>
        <mxCell id="GQ-dvTlJsdlPZqajyjdu-89" value="&lt;font style=&quot;font-size: 15px&quot;&gt;&lt;font color=&quot;#ff0000&quot;&gt;vhost&lt;/font&gt;&lt;br&gt;&lt;/font&gt;&lt;br&gt;vhost线程即vhost_worker，在创建每个设备的时候创建，由wake_up_process激活线程处理报文" style="text;html=1;strokeColor=none;fillColor=none;align=center;verticalAlign=middle;whiteSpace=wrap;rounded=1;fontSize=12;sketch=1;" parent="1" vertex="1">
          <mxGeometry x="377" y="1000" width="196" height="30" as="geometry" />
        </mxCell>
        <mxCell id="GQ-dvTlJsdlPZqajyjdu-90" value="&lt;font style=&quot;font-size: 15px&quot;&gt;&lt;font color=&quot;#ff0000&quot;&gt;OVS&lt;/font&gt;&lt;br&gt;&lt;/font&gt;&lt;br&gt;&lt;div style=&quot;text-align: left&quot;&gt;&lt;span&gt;1. 根据key的hash在datapath中查找&lt;/span&gt;&lt;/div&gt;&lt;div style=&quot;text-align: left&quot;&gt;&lt;br&gt;&lt;/div&gt;&lt;div style=&quot;text-align: left&quot;&gt;&lt;span&gt;2.查找不到上送到用户空间查找&lt;/span&gt;&lt;/div&gt;&lt;div style=&quot;text-align: left&quot;&gt;&lt;span&gt;3.还查不到上送到controller查找&lt;/span&gt;&lt;/div&gt;" style="text;html=1;strokeColor=none;fillColor=none;align=center;verticalAlign=middle;whiteSpace=wrap;rounded=1;fontSize=12;sketch=1;" parent="1" vertex="1">
          <mxGeometry x="376" y="1280" width="196" height="30" as="geometry" />
        </mxCell>
        <mxCell id="GQ-dvTlJsdlPZqajyjdu-96" style="edgeStyle=none;rounded=1;orthogonalLoop=1;jettySize=auto;html=1;exitX=0;exitY=0.5;exitDx=0;exitDy=0;entryX=1;entryY=0.5;entryDx=0;entryDy=0;fontSize=15;fontColor=#FF0000;sketch=1;curved=1;" parent="1" source="GQ-dvTlJsdlPZqajyjdu-91" target="GQ-dvTlJsdlPZqajyjdu-94" edge="1">
          <mxGeometry relative="1" as="geometry" />
        </mxCell>
        <mxCell id="GQ-dvTlJsdlPZqajyjdu-91" value="VXLAN" style="rounded=1;whiteSpace=wrap;html=1;sketch=1;" parent="1" vertex="1">
          <mxGeometry x="727" y="1520" width="80" height="40" as="geometry" />
        </mxCell>
        <mxCell id="GQ-dvTlJsdlPZqajyjdu-94" value="协议栈 local_out" style="rounded=1;whiteSpace=wrap;html=1;sketch=1;" parent="1" vertex="1">
          <mxGeometry x="520" y="1520" width="120" height="40" as="geometry" />
        </mxCell>
        <mxCell id="GQ-dvTlJsdlPZqajyjdu-97" value="&lt;font color=&quot;#ff0000&quot;&gt;&lt;span style=&quot;font-size: 15px&quot;&gt;协议栈&lt;/span&gt;&lt;/font&gt;" style="text;html=1;strokeColor=none;fillColor=none;align=center;verticalAlign=middle;whiteSpace=wrap;rounded=1;fontSize=12;sketch=1;" parent="1" vertex="1">
          <mxGeometry x="199" y="1525" width="196" height="30" as="geometry" />
        </mxCell>
        <mxCell id="GQ-dvTlJsdlPZqajyjdu-98" value="vxlan_xmit" style="text;html=1;strokeColor=none;fillColor=none;align=center;verticalAlign=middle;whiteSpace=wrap;rounded=1;fontSize=12;sketch=1;" parent="1" vertex="1">
          <mxGeometry x="690" y="1410" width="60" height="30" as="geometry" />
        </mxCell>
      </root>
    </mxGraphModel>
  </diagram>
</mxfile>
